<svg xmlns="http://www.w3.org/2000/svg" viewBox="0 0 32 32" width="32" height="32">
  <!-- Sky background -->
  <rect width="32" height="32" fill="#87CEEB"/>

  <!-- Sun -->
  <circle cx="26" cy="8" r="3" fill="#FFD700"/>

  <!-- Main house (tall, narrow and white) -->
  <rect x="13" y="6" width="6" height="20" fill="#FFFFFF"/>

  <!-- Roof -->
  <polygon points="12,6 16,2 20,6" fill="#D2691E"/>

  <!-- Door -->
  <rect x="14.5" y="20" width="2" height="6" fill="#8B4513"/>
  <circle cx="16" cy="23" r="0.2" fill="#FFD700"/>

  <!-- Windows -->
  <rect x="14" y="8" width="1.5" height="1.5" fill="#87CEEB"/>
  <rect x="16.5" y="8" width="1.5" height="1.5" fill="#87CEEB"/>
  <rect x="14" y="12" width="1.5" height="1.5" fill="#87CEEB"/>
  <rect x="16.5" y="12" width="1.5" height="1.5" fill="#87CEEB"/>
  <rect x="14" y="16" width="1.5" height="1.5" fill="#87CEEB"/>
  <rect x="16.5" y="16" width="1.5" height="1.5" fill="#87CEEB"/>

  <!-- Window frames -->
  <rect x="14" y="8" width="1.5" height="1.5" fill="none" stroke="#666" stroke-width="0.1"/>
  <rect x="16.5" y="8" width="1.5" height="1.5" fill="none" stroke="#666" stroke-width="0.1"/>
  <rect x="14" y="12" width="1.5" height="1.5" fill="none" stroke="#666" stroke-width="0.1"/>
  <rect x="16.5" y="12" width="1.5" height="1.5" fill="none" stroke="#666" stroke-width="0.1"/>
  <rect x="14" y="16" width="1.5" height="1.5" fill="none" stroke="#666" stroke-width="0.1"/>
  <rect x="16.5" y="16" width="1.5" height="1.5" fill="none" stroke="#666" stroke-width="0.1"/>

  <!-- Window crosses -->
  <line x1="14.75" y1="8" x2="14.75" y2="9.5" stroke="#666" stroke-width="0.05"/>
  <line x1="14" y1="8.75" x2="15.5" y2="8.75" stroke="#666" stroke-width="0.05"/>
  <line x1="17.25" y1="8" x2="17.25" y2="9.5" stroke="#666" stroke-width="0.05"/>
  <line x1="16.5" y1="8.75" x2="18" y2="8.75" stroke="#666" stroke-width="0.05"/>
  <line x1="14.75" y1="12" x2="14.75" y2="13.5" stroke="#666" stroke-width="0.05"/>
  <line x1="14" y1="12.75" x2="15.5" y2="12.75" stroke="#666" stroke-width="0.05"/>
  <line x1="17.25" y1="12" x2="17.25" y2="13.5" stroke="#666" stroke-width="0.05"/>
  <line x1="16.5" y1="12.75" x2="18" y2="12.75" stroke="#666" stroke-width="0.05"/>
  <line x1="14.75" y1="16" x2="14.75" y2="17.5" stroke="#666" stroke-width="0.05"/>
  <line x1="14" y1="16.75" x2="15.5" y2="16.75" stroke="#666" stroke-width="0.05"/>
  <line x1="17.25" y1="16" x2="17.25" y2="17.5" stroke="#666" stroke-width="0.05"/>
  <line x1="16.5" y1="16.75" x2="18" y2="16.75" stroke="#666" stroke-width="0.05"/>

  <!-- Small balcony -->
  <rect x="13.5" y="18" width="5" height="0.3" fill="#8B4513"/>
  <rect x="13.5" y="18" width="0.2" height="1" fill="#8B4513"/>
  <rect x="18.3" y="18" width="0.2" height="1" fill="#8B4513"/>
</svg>
